:SAMPLES-PER-SECOND 24
:FULLY-SPECIFIED
:DEGREES
356
root  9.21111 37.157 16.9721 5.3772 -61.0888 -3.39609
RightUpLeg  -4.82381 5.74496 -2.2946
RightLeg  39.2905 0.217654 -0.0679645
RightFoot  -28.5582 0.279768 3.11727
RightToes  -2.08645e-008 3.77894e-005 6.81332e-007
Spine  2.44362 0.473142 4.45906
Spine1  5.10702 0.708662 -0.590584
HEad  -39.2851 34.7815 -23.0616
LeftShoulder1  6.86217 -12.7608 -36.1457
LeftArm  10.6198 -6.39893 -29.8482
LeftForeArm  167.767 -73.1885 -147.904
LeftHand  -0.414274 -4.29754 5.24645
RightShoulder  4.0584 6.99492 32.7683
RightArm  13.9338 -23.9208 26.9824
RightForeArm  119.792 79.8296 109.389
RightHand  -0.691538 7.13936 -6.74637
LeftUpLeg  -18.1006 -4.20984 19.8275
LeftLeg  28.1482 4.68721 3.05037
LeftFoot  -8.61985 0.548069 -20.5178
LeftToes  1.24767e-006 1.47042e-008 1.32732e-009
357
root  9.20112 37.4019 16.5399 3.96167 -58.0953 -2.16492
RightUpLeg  -3.31812 5.93898 -1.16041
RightLeg  37.2248 -2.2953 -2.11577
RightFoot  -27.7963 0.411501 4.16634
RightToes  -2.08645e-008 3.77894e-005 6.81332e-007
Spine  3.40129 -1.03085 2.26189
Spine1  5.54094 -1.41802 2.12209
HEad  -43.6137 34.4005 -25.914
LeftShoulder1  7.38289 -13.2767 -37.8934
LeftArm  8.03763 4.39953 -28.9506
LeftForeArm  165.356 -73.4713 -146.919
LeftHand  -0.447209 -3.74097 5.95776
RightShoulder  4.19102 7.05023 33.8208
RightArm  10.7201 -27.323 29.152
RightForeArm  128.227 79.1993 117.539
RightHand  -0.724503 6.97042 -7.13631
LeftUpLeg  -21.6956 -6.20154 19.6722
LeftLeg  31.2717 5.28574 3.80508
LeftFoot  -2.82117 1.58333 -20.7745
LeftToes  1.24767e-006 1.47042e-008 1.32732e-009
358
root  9.04642 38.4475 16.4853 2.66772 -56.1608 0.00390625
RightUpLeg  -1.30251 4.75759 -2.1351
RightLeg  31.594 -2.96288 -2.19757
RightFoot  -22.68 0.251001 3.96928
RightToes  -2.08645e-008 3.77894e-005 6.81332e-007
Spine  2.87906 -1.74369 0.90609
Spine1  5.21501 -2.37404 2.87581
HEad  -43.4859 34.6717 -25.7151
LeftShoulder1  7.97721 -13.7966 -39.9075
LeftArm  6.64384 16.6452 -28.4339
LeftForeArm  160.899 -73.8866 -145.35
LeftHand  -0.487592 -2.91859 7.04826
RightShoulder  4.23031 7.00412 34.365
RightArm  8.84765 -33.3263 30.9108
RightForeArm  134.553 78.384 124.491
RightHand  -0.660382 6.79853 -6.62105
LeftUpLeg  -22.7249 -5.62553 17.5807
LeftLeg  28.8623 6.82239 4.37121
LeftFoot  7.22355 2.88339 -17.898
LeftToes  1.24767e-006 1.47042e-008 1.32732e-009
359
root  8.86357 39.8827 16.6903 2.82861 -58.502 1.50626
RightUpLeg  -1.76733 4.71488 -4.32601
RightLeg  26.8494 0.549328 0.0717303
RightFoot  -13.5074 0.0118261 5.47038
RightToes  -2.08645e-008 3.77894e-005 6.81332e-007
Spine  1.03921 -0.757842 1.76129
Spine1  5.03713 -0.91492 0.472909
HEad  -40.7714 35.9565 -23.8361
LeftShoulder1  8.32067 -14.0364 -41.1629
LeftArm  4.3011 28.6762 -28.3017
LeftForeArm  164.937 -72.2072 -149.253
LeftHand  -0.443271 -2.96311 6.39522
RightShoulder  4.27174 7.00327 34.758
RightArm  9.49937 -37.5953 30.7796
RightForeArm  133.058 78.4433 123.732
RightHand  -0.645236 6.67376 -6.53892
LeftUpLeg  -20.5406 -0.990293 15.0796
LeftLeg  22.0069 6.2473 3.0978
LeftFoot  16.0486 3.82944 -16.0372
LeftToes  1.24767e-006 1.47042e-008 1.32732e-009
360
root  8.70524 41.0443 16.9009 2.92554 -62.6121 2.99667
RightUpLeg  -3.98567 5.46478 -6.84328
RightLeg  24.8347 5.71286 2.67068
RightFoot  -5.24715 -0.553248 9.87738
RightToes  -2.08645e-008 3.77894e-005 6.81332e-007
Spine  0.0448712 0.91332 1.13832
Spine1  4.01604 0.957067 -0.462974
HEad  -37.6302 37.8375 -21.6889
LeftShoulder1  8.1518 -13.8906 -40.6233
LeftArm  0.120469 39.9245 -30.0454
LeftForeArm  168.154 -69.6804 -153.588
LeftHand  -0.272195 -3.3201 3.86852
RightShoulder  4.28176 7.02933 34.7524
RightArm  12.8872 -39.3768 28.4934
RightForeArm  127.299 78.8981 119.256
RightHand  -0.567407 6.61796 -5.81627
LeftUpLeg  -17.6274 3.88461 13.1679
LeftLeg  15.2965 2.33872 1.10735
LeftFoot  19.1161 4.88328 -18.2657
LeftToes  1.24767e-006 1.47042e-008 1.32732e-009
361
root  8.59046 41.5914 17.0612 2.21582 -65.3559 4.78879
RightUpLeg  -5.71781 6.04545 -8.34788
RightLeg  24.0612 4.1929 1.83211
RightFoot  -2.36914 -0.794382 9.98175
RightToes  -2.08645e-008 3.77894e-005 6.81332e-007
Spine  -0.812693 1.85185 -0.962887
Spine1  3.83837 1.79466 0.290051
HEad  -35.884 39.2527 -20.382
LeftShoulder1  7.94369 -13.7799 -39.7699
LeftArm  -2.86428 47.8053 -30.1273
LeftForeArm  165.802 -67.7443 -155.688
LeftHand  -0.202074 -2.92736 3.05689
RightShoulder  4.21551 6.97317 34.3426
RightArm  16.8733 -38.5669 26.1776
RightForeArm  120.251 79.4177 113.027
RightHand  -0.406104 6.69255 -4.24058
LeftUpLeg  -15.9068 5.10242 11.887
LeftLeg  11.6818 0.647268 0.80467
LeftFoot  18.7473 5.06384 -19.1268
LeftToes  1.24767e-006 1.47042e-008 1.32732e-009
362
root  8.53561 41.5475 17.2696 1.7998 -66.2114 5.62857
RightUpLeg  -6.28782 6.09468 -8.45324
RightLeg  23.3388 -4.75785 -2.45032
RightFoot  -2.62272 -0.380388 4.69858
RightToes  -2.08645e-008 3.77894e-005 6.81332e-007
Spine  -1.81497 1.70312 -1.70135
Spine1  5.22728 1.6398 0.570048
HEad  -36.3571 39.7441 -20.9105
LeftShoulder1  7.79236 -13.7036 -39.1281
LeftArm  -2.62054 51.3526 -26.8922
LeftForeArm  162.715 -66.3348 -156.859
LeftHand  -0.268959 -2.02892 4.4068
RightShoulder  4.17008 6.90902 34.1567
RightArm  19.6511 -35.9282 24.7953
RightForeArm  119.29 79.595 111.207
RightHand  -0.318642 6.65441 -3.41224
LeftUpLeg  -15.2631 3.09307 11.3153
LeftLeg  11.2496 2.57513 1.64554
LeftFoot  18.8694 4.52308 -17.0865
LeftToes  1.24767e-006 1.47042e-008 1.32732e-009
363
root  8.57506 40.8037 17.4661 1.68896 -66.1188 5.63583
RightUpLeg  -6.33258 5.79453 -8.7078
RightLeg  23.9393 -10.6842 -5.36162
RightFoot  -5.63415 -0.266788 4.57982
RightToes  -2.08645e-008 3.77894e-005 6.81332e-007
Spine  -1.07681 1.1664 -1.53774
Spine1  5.28161 1.056 0.748525
HEad  -37.2549 39.6182 -22.3126
LeftShoulder1  7.3547 -13.3405 -37.5711
LeftArm  -1.387 51.69 -23.8921
LeftForeArm  159.993 -66.5727 -156.297
LeftHand  -0.31383 -1.80557 5.24221
RightShoulder  4.10966 6.86176 33.7592
RightArm  20.9752 -33.5077 24.3558
RightForeArm  123.56 79.3422 114.899
RightHand  -0.330488 6.70791 -3.51314
LeftUpLeg  -15.342 -0.140236 11.5699
LeftLeg  14.0948 4.38793 2.07711
LeftFoot  14.4765 3.90266 -17.3084
LeftToes  1.24767e-006 1.47042e-008 1.32732e-009
364
root  8.72612 39.4776 17.6558 2.66064 -66.3897 4.34808
RightUpLeg  -6.62283 5.29456 -9.43012
RightLeg  26.4717 -8.20009 -4.62391
RightFoot  -13.3094 0.0743786 9.71975
RightToes  -2.08645e-008 3.77894e-005 6.81332e-007
Spine  0.921932 1.09359 0.0862667
Spine1  4.05226 1.08664 0.00121546
HEad  -37.622 39.0758 -23.2631
LeftShoulder1  6.92968 -12.9274 -36.1307
LeftArm  -0.0576437 48.0523 -21.5076
LeftForeArm  156.505 -69.6178 -152.083
LeftHand  -0.420863 -2.36213 6.49994
RightShoulder  3.99919 6.78167 32.997
RightArm  20.228 -31.1005 25.5303
RightForeArm  118.099 79.6944 109.73
RightHand  -0.414588 6.99693 -4.22962
LeftUpLeg  -16.1903 -2.07828 12.2782
LeftLeg  19.2729 5.49637 2.42584
LeftFoot  2.75352 2.33312 -18.7835
LeftToes  1.24767e-006 1.47042e-008 1.32732e-009
